<svg xmlns="http://www.w3.org/2000/svg" viewBox="0 0 254 211"><defs><style>.a{fill:#35c901;}</style></defs><path class="a" d="M372,189H215s-7,116-8,129a103.48,103.48,0,0,1-10,40H151c9-19,10-29,11-38-.08-1,8-118,7-131-11-2-38,4-49,16,0-4,2-45,2-45a75.08,75.08,0,0,1,38-13H374Z" transform="translate(-120 -147)"/><path class="a" d="M280,210l-4,99a50.5,50.5,0,0,0,12,34c13,15,30,15,48,15s19,0,20-2,2-44,2-44-29,3-34-5c-5-7-2-23-2-31s4.11-66,4.11-66S318,216,304,216A55.81,55.81,0,0,1,280,210Z" transform="translate(-120 -147)"/></svg>